<svg xmlns="http://www.w3.org/2000/svg" width="214" height="212" viewBox="0 0 214 212">
  <defs>
    <style>
      .cls-1 {
        font-size: 50px;
        text-anchor: middle;
        font-family: "Century Gothic";
        font-weight: 700;
      }

      .cls-2 {
        fill-rule: evenodd;
      }

      .cls-3 {
        fill: #06d869;
      }

      .cls-4 {
        fill: #232323;
      }

      .cls-5 {
        fill: #666;
      }
    </style>
  </defs>
  <text id="LoMap_copy" data-name="LoMap copy" class="cls-1" transform="translate(550.147 151.312) scale(3.882)"><tspan x="0">LoMap</tspan></text>
  <text id="Save_share_discover_" data-name="Save, share, discover!" class="cls-1" transform="translate(488.322 193.294) scale(0.923)"><tspan x="0">Save, share, discover!</tspan></text>
  <ellipse id="Ellipse_1_copy_2" data-name="Ellipse 1 copy 2" cx="107" cy="67.547" rx="59.219" ry="63.672"/>
  <path id="Ellipse_1_copy" data-name="Ellipse 1 copy" class="cls-2" d="M107,2.063A61.031,61.031,0,1,1,45.969,63.094,61.031,61.031,0,0,1,107,2.063ZM107,164s25.451-23.111,40-45c14.358-21.6,15.78-30.9,16-31H51a135.109,135.109,0,0,0,19,36c14.651,19.622,37,40,37,40"/>
  <ellipse class="cls-3" cx="107" cy="63.094" rx="24.906" ry="24.906"/>
  <rect x="755" y="191" width="26" height="4"/>
  <rect class="cls-4" x="755" y="191" width="1" height="4"/>
  <rect class="cls-5" x="780" y="191" width="1" height="4"/>
  <path id="Shape_316_1" data-name="Shape 316 1" class="cls-2" d="M1,210H213l-45.57-93h-9.907L149.6,129h9.907L192.2,197H21.8L54.5,129H64.4l-7.925-12h-10.9Z"/>
</svg>
