<svg xmlns="http://www.w3.org/2000/svg" width="617" height="186" viewBox="0 0 617 186">
  <defs>
    <style>
      .cls-1 {
        font-size: 50px;
        text-anchor: middle;
        font-family: "Century Gothic";
        font-weight: 700;
      }

      .cls-2 {
        fill-rule: evenodd;
      }

      .cls-3 {
        fill: #06d869;
      }

      .cls-4 {
        fill: #232323;
      }

      .cls-5 {
        fill: #666;
      }
    </style>
  </defs>
  <text id="LoMap_copy" data-name="LoMap copy" class="cls-1" transform="translate(305.147 139.312) scale(3.882)"><tspan x="0">LoMap</tspan></text>
  <text id="Save_share_discover_" data-name="Save, share, discover!" class="cls-1" transform="translate(243.323 181.294) scale(0.923)"><tspan x="0">Save, share, discover!</tspan></text>
  <ellipse id="Ellipse_1_copy_2" data-name="Ellipse 1 copy 2" cx="-138" cy="53.547" rx="59.219" ry="63.672"/>
  <path id="Ellipse_1_copy" data-name="Ellipse 1 copy" class="cls-2" d="M-138-11.937A61.031,61.031,0,0,1-76.969,49.094,61.031,61.031,0,0,1-138,110.125a61.031,61.031,0,0,1-61.031-61.031A61.031,61.031,0,0,1-138-11.937ZM-138,150s25.451-23.111,40-45c14.358-21.6,15.78-30.9,16-31H-194a135.1,135.1,0,0,0,19,36c14.651,19.622,37,40,37,40"/>
  <ellipse class="cls-3" cx="-138" cy="49.094" rx="24.906" ry="24.906"/>
  <rect x="510" y="177" width="26" height="4"/>
  <rect class="cls-4" x="510" y="177" width="1" height="4"/>
  <rect class="cls-5" x="535" y="177" width="1" height="4"/>
  <path id="Shape_316_1" data-name="Shape 316 1" class="cls-2" d="M-244,196H-32l-45.57-93h-9.907L-95.4,115H-85.5L-52.8,183H-223.2l32.691-68h9.907l-7.925-12h-10.9Z"/>
</svg>
